HIERARCHY
ROOT mixamorig7:Hips
{
	OFFSET 0.000000 97.888290 0.000000
	CHANNELS 6 Xposition Yposition Zposition Xrotation Yrotation Zrotation
	JOINT mixamorig7:Spine
	{
		OFFSET 0.000000 10.737198 -0.638600
		CHANNELS 3 Xrotation Yrotation Zrotation
		JOINT mixamorig7:Spine1
		{
			OFFSET 0.000000 12.526764 -0.745038
			CHANNELS 3 Xrotation Yrotation Zrotation
			JOINT mixamorig7:Spine2
			{
				OFFSET 0.000000 14.316299 -0.851473
				CHANNELS 3 Xrotation Yrotation Zrotation
				JOINT mixamorig7:Neck
				{
					OFFSET 0.000000 16.105743 -0.957901
					CHANNELS 3 Xrotation Yrotation Zrotation
					JOINT mixamorig7:Head
					{
						OFFSET 0.000000 4.186798 1.019993
						CHANNELS 3 Xrotation Yrotation Zrotation
						JOINT mixamorig7:HeadTop_End
						{
							OFFSET 0.000000 22.222412 5.413761
							CHANNELS 3 Xrotation Yrotation Zrotation
							End Site
							{
								OFFSET 0.000000 22.872345 -0.000040
							}
						}
					}
				}
				JOINT mixamorig7:LeftShoulder
				{
					OFFSET 7.459100 13.238831 -0.956989
					CHANNELS 3 Xrotation Yrotation Zrotation
					JOINT mixamorig7:LeftArm
					{
						OFFSET 14.899144 -5.650955 0.001856
						CHANNELS 3 Xrotation Yrotation Zrotation
						JOINT mixamorig7:LeftForeArm
						{
							OFFSET 23.759905 0.000000 -0.000000
							CHANNELS 3 Xrotation Yrotation Zrotation
							JOINT mixamorig7:LeftHand
							{
								OFFSET 23.427200 0.000000 -0.000000
								CHANNELS 3 Xrotation Yrotation Zrotation
								JOINT mixamorig7:LeftHandThumb1
								{
									OFFSET 3.444801 -1.242386 2.764239
									CHANNELS 3 Xrotation Yrotation Zrotation
									JOINT mixamorig7:LeftHandThumb2
									{
										OFFSET 2.843140 -1.641479 1.641487
										CHANNELS 3 Xrotation Yrotation Zrotation
										JOINT mixamorig7:LeftHandThumb3
										{
											OFFSET 2.575638 -1.487045 1.487043
											CHANNELS 3 Xrotation Yrotation Zrotation
											JOINT mixamorig7:LeftHandThumb4
											{
												OFFSET 2.160782 -1.247528 1.247527
												CHANNELS 3 Xrotation Yrotation Zrotation
												End Site
												{
													OFFSET 1.950348 -1.229736 1.570183
												}
											}
										}
									}
								}
								JOINT mixamorig7:LeftHandIndex1
								{
									OFFSET 10.234055 -0.022766 2.670493
									CHANNELS 3 Xrotation Yrotation Zrotation
									JOINT mixamorig7:LeftHandIndex2
									{
										OFFSET 3.310387 0.000000 -0.000000
										CHANNELS 3 Xrotation Yrotation Zrotation
										JOINT mixamorig7:LeftHandIndex3
										{
											OFFSET 3.057747 0.000000 -0.000000
											CHANNELS 3 Xrotation Yrotation Zrotation
											JOINT mixamorig7:LeftHandIndex4
											{
												OFFSET 2.606407 0.000000 -0.000000
												CHANNELS 3 Xrotation Yrotation Zrotation
												End Site
												{
													OFFSET 2.606392 -0.000168 -0.005998
												}
											}
										}
									}
								}
								JOINT mixamorig7:LeftHandMiddle1
								{
									OFFSET 9.955849 0.000000 -0.000000
									CHANNELS 3 Xrotation Yrotation Zrotation
									JOINT mixamorig7:LeftHandMiddle2
									{
										OFFSET 3.505981 0.000000 0.000000
										CHANNELS 3 Xrotation Yrotation Zrotation
										JOINT mixamorig7:LeftHandMiddle3
										{
											OFFSET 3.424103 0.000000 0.000000
											CHANNELS 3 Xrotation Yrotation Zrotation
											JOINT mixamorig7:LeftHandMiddle4
											{
												OFFSET 3.088013 0.000000 0.000000
												CHANNELS 3 Xrotation Yrotation Zrotation
												End Site
												{
													OFFSET 3.087997 -0.000229 -0.009097
												}
											}
										}
									}
								}
								JOINT mixamorig7:LeftHandRing1
								{
									OFFSET 10.000679 0.291443 -2.135665
									CHANNELS 3 Xrotation Yrotation Zrotation
									JOINT mixamorig7:LeftHandRing2
									{
										OFFSET 2.966507 0.000000 0.000000
										CHANNELS 3 Xrotation Yrotation Zrotation
										JOINT mixamorig7:LeftHandRing3
										{
											OFFSET 2.721405 0.000000 0.000000
											CHANNELS 3 Xrotation Yrotation Zrotation
											JOINT mixamorig7:LeftHandRing4
											{
												OFFSET 2.396927 0.000000 0.000000
												CHANNELS 3 Xrotation Yrotation Zrotation
												End Site
												{
													OFFSET 2.396896 0.000534 0.011888
												}
											}
										}
									}
								}
								JOINT mixamorig7:LeftHandPinky1
								{
									OFFSET 8.667770 -0.130829 -4.207381
									CHANNELS 3 Xrotation Yrotation Zrotation
									JOINT mixamorig7:LeftHandPinky2
									{
										OFFSET 2.643135 0.000000 0.000000
										CHANNELS 3 Xrotation Yrotation Zrotation
										JOINT mixamorig7:LeftHandPinky3
										{
											OFFSET 2.303925 0.000000 0.000000
											CHANNELS 3 Xrotation Yrotation Zrotation
											JOINT mixamorig7:LeftHandPinky4
											{
												OFFSET 1.963600 0.000000 0.000000
												CHANNELS 3 Xrotation Yrotation Zrotation
												End Site
												{
													OFFSET 1.963608 -0.000107 -0.002998
												}
											}
										}
									}
								}
							}
						}
					}
				}
				JOINT mixamorig7:RightShoulder
				{
					OFFSET -7.459100 13.238831 -0.958792
					CHANNELS 3 Xrotation Yrotation Zrotation
					JOINT mixamorig7:RightArm
					{
						OFFSET -14.899146 -5.650955 -0.001870
						CHANNELS 3 Xrotation Yrotation Zrotation
						JOINT mixamorig7:RightForeArm
						{
							OFFSET -23.758698 0.000000 -0.000001
							CHANNELS 3 Xrotation Yrotation Zrotation
							JOINT mixamorig7:RightHand
							{
								OFFSET -23.424500 0.000000 -0.000001
								CHANNELS 3 Xrotation Yrotation Zrotation
								JOINT mixamorig7:RightHandThumb1
								{
									OFFSET -3.159088 -1.153671 2.616264
									CHANNELS 3 Xrotation Yrotation Zrotation
									JOINT mixamorig7:RightHandThumb2
									{
										OFFSET -2.640442 -1.524460 1.524461
										CHANNELS 3 Xrotation Yrotation Zrotation
										JOINT mixamorig7:RightHandThumb3
										{
											OFFSET -2.751495 -1.588577 1.588575
											CHANNELS 3 Xrotation Yrotation Zrotation
											JOINT mixamorig7:RightHandThumb4
											{
												OFFSET -2.484169 -1.434235 1.434235
												CHANNELS 3 Xrotation Yrotation Zrotation
												End Site
												{
													OFFSET -2.274292 -1.411621 1.766373
												}
											}
										}
									}
								}
								JOINT mixamorig7:RightHandIndex1
								{
									OFFSET -10.102242 -0.352341 2.579288
									CHANNELS 3 Xrotation Yrotation Zrotation
									JOINT mixamorig7:RightHandIndex2
									{
										OFFSET -3.311905 0.000000 -0.000000
										CHANNELS 3 Xrotation Yrotation Zrotation
										JOINT mixamorig7:RightHandIndex3
										{
											OFFSET -3.114609 0.000000 -0.000000
											CHANNELS 3 Xrotation Yrotation Zrotation
											JOINT mixamorig7:RightHandIndex4
											{
												OFFSET -2.751961 0.000000 -0.000000
												CHANNELS 3 Xrotation Yrotation Zrotation
												End Site
												{
													OFFSET -2.751907 -0.000580 -0.018491
												}
											}
										}
									}
								}
								JOINT mixamorig7:RightHandMiddle1
								{
									OFFSET -10.265968 0.000000 -0.000000
									CHANNELS 3 Xrotation Yrotation Zrotation
									JOINT mixamorig7:RightHandMiddle2
									{
										OFFSET -3.524071 0.000000 0.000000
										CHANNELS 3 Xrotation Yrotation Zrotation
										JOINT mixamorig7:RightHandMiddle3
										{
											OFFSET -3.266708 0.000000 0.000000
											CHANNELS 3 Xrotation Yrotation Zrotation
											JOINT mixamorig7:RightHandMiddle4
											{
												OFFSET -2.783035 0.000000 0.000000
												CHANNELS 3 Xrotation Yrotation Zrotation
												End Site
												{
													OFFSET -2.782997 -0.000443 -0.014293
												}
											}
										}
									}
								}
								JOINT mixamorig7:RightHandRing1
								{
									OFFSET -10.028801 -0.310440 -2.067591
									CHANNELS 3 Xrotation Yrotation Zrotation
									JOINT mixamorig7:RightHandRing2
									{
										OFFSET -2.910011 0.000000 0.000000
										CHANNELS 3 Xrotation Yrotation Zrotation
										JOINT mixamorig7:RightHandRing3
										{
											OFFSET -2.697533 0.000000 0.000000
											CHANNELS 3 Xrotation Yrotation Zrotation
											JOINT mixamorig7:RightHandRing4
											{
												OFFSET -2.383308 0.000000 0.000000
												CHANNELS 3 Xrotation Yrotation Zrotation
												End Site
												{
													OFFSET -2.383293 0.000153 0.004697
												}
											}
										}
									}
								}
								JOINT mixamorig7:RightHandPinky1
								{
									OFFSET -8.778542 -0.246780 -4.231988
									CHANNELS 3 Xrotation Yrotation Zrotation
									JOINT mixamorig7:RightHandPinky2
									{
										OFFSET -2.771614 0.000000 0.000000
										CHANNELS 3 Xrotation Yrotation Zrotation
										JOINT mixamorig7:RightHandPinky3
										{
											OFFSET -2.229317 0.000000 0.000000
											CHANNELS 3 Xrotation Yrotation Zrotation
											JOINT mixamorig7:RightHandPinky4
											{
												OFFSET -1.952400 0.000000 0.000000
												CHANNELS 3 Xrotation Yrotation Zrotation
												End Site
												{
													OFFSET -1.952393 0.000015 0.000200
												}
											}
										}
									}
								}
							}
						}
					}
				}
			}
		}
	}
	JOINT mixamorig7:LeftUpLeg
	{
		OFFSET 10.168800 -5.969902 0.929900
		CHANNELS 3 Xrotation Yrotation Zrotation
		JOINT mixamorig7:LeftLeg
		{
			OFFSET 0.264112 -41.400845 -2.498346
			CHANNELS 3 Xrotation Yrotation Zrotation
			JOINT mixamorig7:LeftFoot
			{
				OFFSET -0.264104 -38.045753 -2.350477
				CHANNELS 3 Xrotation Yrotation Zrotation
				JOINT mixamorig7:LeftToeBase
				{
					OFFSET 1.939442 -11.653793 16.156235
					CHANNELS 3 Xrotation Yrotation Zrotation
					JOINT mixamorig7:LeftToe_End
					{
						OFFSET 0.873791 0.157644 7.748193
						CHANNELS 3 Xrotation Yrotation Zrotation
						End Site
						{
							OFFSET 0.873791 0.157644 7.748192
						}
					}
				}
			}
		}
	}
	JOINT mixamorig7:RightUpLeg
	{
		OFFSET -10.168800 -5.969902 0.877000
		CHANNELS 3 Xrotation Yrotation Zrotation
		JOINT mixamorig7:RightLeg
		{
			OFFSET -0.264104 -41.400833 -2.119620
			CHANNELS 3 Xrotation Yrotation Zrotation
			JOINT mixamorig7:RightFoot
			{
				OFFSET 0.264099 -38.045677 -2.720191
				CHANNELS 3 Xrotation Yrotation Zrotation
				JOINT mixamorig7:RightToeBase
				{
					OFFSET -1.939489 -11.654438 15.895105
					CHANNELS 3 Xrotation Yrotation Zrotation
					JOINT mixamorig7:RightToe_End
					{
						OFFSET -0.873813 0.157326 7.701490
						CHANNELS 3 Xrotation Yrotation Zrotation
						End Site
						{
							OFFSET -0.873813 0.157326 7.701490
						}
					}
				}
			}
		}
	}
}
MOTION
Frames: 4
Frame Time: 0.033333
-6.595347 133.406128 18.548656 -188.689918 10.148707 10.139277 12.728398 0.327980 0.066790 25.446790 1.354796 0.663519 25.446763 1.354795 0.663519 -9.191060 -1.628549 -0.945179 -9.191070 -1.628548 -0.945179 0.000003 0.000000 0.000001 -3.545873 -36.589054 -14.017277 -14.399316 2.726270 -12.531671 -40.581398 -66.664996 -43.097336 -19.585026 -15.499221 -7.402039 -6.338701 6.204586 0.372989 -0.748478 0.391341 0.343671 0.000002 -0.000006 0.000008 0.000001 0.000004 -0.000007 1.159488 -0.982724 -41.640866 -1.578883 -0.251473 -30.484265 0.000000 -0.000001 0.000002 -0.000003 -0.000000 0.000000 -0.633238 -3.301475 -42.509182 -1.890092 -1.669849 -27.866835 -0.000004 -0.000000 0.000003 0.000002 0.000002 -0.000001 -4.356496 -0.169050 -42.673547 0.331338 -2.504927 -23.385562 0.000005 -0.000000 0.000005 0.000002 0.000001 0.000000 -8.217940 0.309850 -42.061924 0.449207 -6.150216 -26.097634 -0.000004 0.000002 -0.000004 -0.000003 -0.000000 -0.000000 0.340850 25.022763 6.291879 -25.872738 2.125849 24.558423 -18.120111 69.669193 24.631353 -21.983705 -8.236301 9.290886 -3.344007 -4.414478 12.404760 20.871410 -5.872119 -8.330024 0.000012 0.000014 -0.000006 -0.000000 -0.000009 0.000002 -1.098597 -0.541365 49.312603 -2.606160 0.047478 41.831541 0.000017 -0.000002 -0.000000 0.000000 0.000002 0.000000 -4.441514 0.391837 44.251553 -3.216748 0.597975 35.688141 0.000002 -0.000005 0.000008 0.000000 -0.000000 0.000001 -5.217710 2.629023 44.599182 0.952092 4.263235 26.712431 -0.000015 0.000012 -0.000002 -0.000003 0.000002 -0.000002 -2.367740 5.371458 39.291637 -1.673204 8.190576 21.181649 -0.000007 0.000001 0.000008 0.000000 0.000001 -0.000000 -86.458433 2.896416 10.893767 126.548884 -12.695287 -2.900843 -13.249618 1.673984 -3.928625 0.438161 1.996485 -1.540883 0.000000 -0.000001 0.000001 -88.906503 9.608591 3.158812 114.728190 -2.403845 -5.561641 7.332934 6.232805 15.182349 -6.231348 -6.985677 6.690282 0.000001 0.000001 0.000002 
-6.145258 136.544647 20.824379 -208.437101 6.074894 13.418382 13.192054 0.688775 0.365485 26.371079 2.062789 0.969089 26.371063 2.062798 0.969091 -6.943289 -1.564737 -1.084649 -6.943284 -1.564743 -1.084651 0.000000 -0.000001 0.000001 -3.101873 -36.573518 -12.349793 -13.428827 7.243829 -13.436409 -64.058111 -70.022553 -65.124706 -23.002793 -17.351836 -10.266318 -7.219923 5.490120 2.136301 -0.784118 0.327803 0.329990 0.000005 -0.000004 0.000008 0.000001 0.000004 -0.000004 1.140009 -1.339494 -39.364784 -1.603794 -0.291718 -30.855803 -0.000003 -0.000004 0.000001 -0.000001 -0.000000 0.000000 -0.665748 -3.206916 -42.049165 -1.920548 -1.729393 -28.398878 0.000001 -0.000001 0.000004 0.000000 -0.000002 -0.000000 -4.156226 -0.041880 -40.260721 0.298573 -2.581457 -24.862254 -0.000001 -0.000004 0.000002 -0.000000 -0.000001 -0.000001 -7.937086 0.662144 -40.145188 0.466407 -6.130278 -25.516340 -0.000005 0.000001 -0.000005 0.000000 0.000000 0.000000 0.730851 24.928240 4.375586 -25.324465 -0.858592 18.489184 -23.354157 71.848454 27.612126 -23.749256 -6.522045 9.968968 -9.251654 -6.808212 11.229909 20.814626 -5.700216 -8.309120 0.000009 0.000016 -0.000004 -0.000000 -0.000000 0.000001 -1.095558 -0.576455 47.082225 -2.636904 0.069273 42.139412 0.000017 0.000001 0.000000 0.000004 0.000000 0.000000 -3.991580 0.214931 43.877002 -3.033718 0.324019 31.846536 0.000001 -0.000001 0.000005 0.000005 -0.000000 0.000001 -5.129681 2.503539 42.167047 0.799389 4.541876 30.475300 -0.000011 0.000009 -0.000005 0.000001 0.000001 -0.000001 -3.667593 3.109698 37.372855 -0.340103 8.654090 21.223168 -0.000002 0.000001 0.000010 0.000001 0.000000 -0.000001 -100.877536 3.932472 13.207135 132.932256 -8.809599 -2.184409 -8.225607 2.362830 -5.014566 0.247975 2.660622 -2.105714 0.000000 -0.000000 -0.000002 -92.969154 7.485285 -2.478798 113.211437 3.091690 -5.694143 11.321277 5.508195 13.344127 -6.045371 -8.381418 7.709002 0.000000 0.000000 0.000001 
-4.968100 136.114563 19.699593 -227.716376 1.825012 16.265694 12.821627 0.942029 0.114983 25.639627 2.337674 0.259452 25.639627 2.337666 0.259451 -4.536639 -1.568758 -0.512128 -4.536633 -1.568761 -0.512131 0.000001 0.000000 0.000000 -1.854379 -35.287189 -8.412498 -11.195795 11.067276 -18.457529 -85.867560 -71.902931 -85.976741 -23.361204 -20.041259 -10.762642 -8.811878 5.289801 3.386032 -0.778581 0.324231 0.334138 0.000003 -0.000003 0.000006 0.000003 0.000003 -0.000000 1.043397 -1.348082 -37.564859 -1.629501 -0.335169 -31.265109 -0.000001 -0.000002 0.000002 0.000000 0.000001 -0.000000 -0.694194 -3.112946 -40.912024 -1.956229 -1.796132 -29.085015 0.000001 0.000000 0.000003 0.000001 -0.000002 0.000000 -4.005245 -0.070924 -38.234723 0.265407 -2.664009 -26.334424 0.000001 -0.000002 0.000004 0.000001 -0.000002 -0.000000 -7.531773 0.678640 -37.214699 0.493564 -6.109096 -24.672223 -0.000007 0.000002 -0.000005 -0.000000 0.000001 0.000001 0.837434 25.129603 3.673544 -24.012660 -2.734435 18.239950 -17.191117 72.401781 20.157410 -20.651244 -2.312597 8.373199 -13.688364 -7.953292 9.297279 20.852376 -5.729402 -8.257145 0.000009 0.000014 -0.000004 -0.000003 -0.000002 0.000003 -1.033960 -0.979383 44.620236 -2.709920 0.152321 43.266195 0.000015 0.000000 0.000001 -0.000000 -0.000000 -0.000000 -3.654958 -0.026739 43.661431 -2.892607 0.084648 28.785347 -0.000001 -0.000002 0.000005 0.000000 0.000003 -0.000000 -5.260492 2.473083 40.899186 0.650434 4.777906 33.712489 -0.000009 0.000010 -0.000006 -0.000001 0.000001 0.000002 -5.149930 1.578244 36.830658 0.722467 9.095834 21.766865 -0.000003 0.000001 0.000009 -0.000000 -0.000001 0.000000 -113.062662 1.776059 16.168197 128.488043 -6.271851 -3.969776 2.928359 3.583074 -7.938919 -0.991696 -2.521586 1.806123 0.000003 0.000002 0.000001 -93.762112 7.087828 -4.529963 106.088404 0.031821 -5.264302 11.202593 6.741143 13.144702 -6.018644 -6.252729 5.603867 0.000001 0.000000 -0.000000 
-5.086693 129.904846 16.512924 -245.238871 -3.093834 17.719404 12.022606 1.026598 -0.466083 24.057545 2.059433 -1.084023 24.057545 2.059441 -1.084019 -2.515553 -1.551087 0.263331 -2.515550 -1.551085 0.263332 -0.000000 -0.000000 0.000001 -0.534563 -33.340728 -3.842679 -9.719067 13.047766 -21.501980 -100.857613 -73.706450 -100.158249 -20.204868 -20.998414 -5.223563 -9.778883 5.248883 4.136948 -0.692827 0.490475 0.398730 0.000002 -0.000005 0.000011 0.000001 0.000005 -0.000000 0.800170 -1.136657 -36.722451 -1.629793 -0.337637 -31.285388 -0.000005 0.000001 0.000000 0.000002 0.000004 -0.000001 -0.925205 -2.947074 -39.678270 -1.920588 -1.732935 -28.783575 0.000004 0.000004 0.000002 -0.000000 0.000002 0.000000 -3.982569 0.166597 -36.855615 0.252688 -2.704639 -26.499671 -0.000002 -0.000004 0.000004 0.000001 0.000000 0.000001 -7.197057 1.003259 -34.710803 0.478562 -6.123348 -23.453662 -0.000005 0.000002 -0.000004 -0.000005 -0.000001 0.000000 0.715988 25.530433 3.841467 -23.517711 -1.999217 23.464859 -4.356777 70.982557 6.929994 -14.571114 2.225133 3.596197 -15.679077 -7.605437 7.018075 20.895068 -5.788174 -8.212043 0.000014 0.000014 -0.000006 -0.000001 -0.000003 0.000002 -0.889109 -1.471691 41.330854 -2.760996 0.211255 44.066400 0.000011 0.000006 -0.000001 0.000001 -0.000002 0.000001 -3.474638 -0.482068 42.746992 -2.820815 -0.047379 27.183875 -0.000001 0.000000 0.000006 0.000000 -0.000002 0.000000 -5.671901 1.951786 40.713935 0.551208 4.922032 35.728556 -0.000007 0.000009 -0.000003 -0.000001 -0.000001 0.000002 -6.483905 0.418948 38.038881 1.324191 9.492675 23.439280 -0.000004 0.000002 0.000008 0.000000 0.000000 -0.000000 -116.966935 -4.842067 16.444326 116.884576 -7.747310 -6.226895 8.924489 3.549108 -5.752682 -4.623332 -4.993545 2.762800 0.000002 -0.000000 0.000000 -89.567003 3.081284 -7.501247 93.155666 -6.187095 -2.924182 11.389469 8.231526 11.686210 -2.086454 -1.997565 0.956880 -0.000002 -0.000001 0.000002 
